<svg width="36" height="36" viewBox="0 0 36 36" fill="none" xmlns="http://www.w3.org/2000/svg">
<rect width="36" height="36" rx="18" fill="#FF0FA7"/>
<rect x="1" y="1" width="34" height="34" rx="17" stroke="black" stroke-opacity="0.4" stroke-width="2"/>
<path d="M8.83325 23.8333V11.3333H10.4999V19.6666H17.1666V13H23.8333C24.7499 13 25.5346 13.3264 26.1874 13.9791C26.8402 14.6319 27.1666 15.4166 27.1666 16.3333V23.8333H25.4999V21.3333H10.4999V23.8333H8.83325ZM13.8333 18.8333C13.1388 18.8333 12.5485 18.5903 12.0624 18.1041C11.5763 17.618 11.3333 17.0278 11.3333 16.3333C11.3333 15.6389 11.5763 15.0486 12.0624 14.5625C12.5485 14.0764 13.1388 13.8333 13.8333 13.8333C14.5277 13.8333 15.118 14.0764 15.6041 14.5625C16.0902 15.0486 16.3333 15.6389 16.3333 16.3333C16.3333 17.0278 16.0902 17.618 15.6041 18.1041C15.118 18.5903 14.5277 18.8333 13.8333 18.8333ZM18.8333 19.6666H25.4999V16.3333C25.4999 15.875 25.3367 15.4826 25.0103 15.1562C24.6839 14.8298 24.2916 14.6666 23.8333 14.6666H18.8333V19.6666ZM13.8333 17.1666C14.0694 17.1666 14.2673 17.0868 14.427 16.9271C14.5867 16.7673 14.6666 16.5694 14.6666 16.3333C14.6666 16.0972 14.5867 15.8993 14.427 15.7396C14.2673 15.5798 14.0694 15.5 13.8333 15.5C13.5971 15.5 13.3992 15.5798 13.2395 15.7396C13.0798 15.8993 12.9999 16.0972 12.9999 16.3333C12.9999 16.5694 13.0798 16.7673 13.2395 16.9271C13.3992 17.0868 13.5971 17.1666 13.8333 17.1666Z" fill="white"/>
</svg>
